<svg width="20" height="18" viewBox="0 0 20 18" fill="none" xmlns="http://www.w3.org/2000/svg">
<g clip-path="url(#clip0_45_187)">
<mask id="mask0_45_187" style="mask-type:luminance" maskUnits="userSpaceOnUse" x="-73" y="-71" width="170" height="117">
<path d="M-72.7305 -70.5531H96.2931V45.7289H-72.7305V-70.5531Z" fill="white"/>
</mask>
<g mask="url(#mask0_45_187)">
<path d="M9.99984 0.195309C4.58857 0.195309 0.200806 3.5661 0.200806 7.72664C0.200806 10.3991 2.01815 12.7455 4.74738 14.0848L3.82405 17.4382C3.78871 17.5411 3.81802 17.6501 3.89472 17.7243C3.94752 17.7761 4.01799 17.8046 4.09448 17.8046C4.15351 17.8046 4.21213 17.7818 4.26513 17.7417L8.2353 15.132C8.8119 15.2121 9.40015 15.2578 9.99984 15.2578C15.4111 15.2578 19.7993 11.8872 19.7993 7.72664C19.7993 3.5661 15.4111 0.195309 9.99984 0.195309Z" fill="#3C1E1E"/>
</g>
</g>
<defs>
<clipPath id="clip0_45_187">
<rect width="20" height="18" fill="white"/>
</clipPath>
</defs>
</svg>
