<svg width="158" height="158" viewBox="0 0 158 158" fill="none" xmlns="http://www.w3.org/2000/svg">
<g filter="url(#filter0_d_45_178)">
<path d="M151.444 55.5887C146.735 38.0131 135.797 22.7489 120.668 12.64C105.539 2.53102 87.2505 -1.73318 69.2106 0.641814C51.1706 3.01681 34.6092 11.869 22.612 25.5492C10.6148 39.2294 4.00001 56.8045 4 75.0001L49 75.0001C49 67.7218 51.6459 60.6918 56.4448 55.2197C61.2437 49.7477 67.8682 46.2068 75.0842 45.2568C82.3002 44.3068 89.6155 46.0125 95.6671 50.056C101.719 54.0996 106.094 60.2053 107.978 67.2355L151.444 55.5887Z" fill="#B869EC"/>
<path d="M79 150C92.1652 150 105.099 146.535 116.5 139.952L94 100.981C89.4394 103.614 84.2661 105 79 105L79 150Z" fill="#B869EC"/>
</g>
<defs>
<filter id="filter0_d_45_178" x="0" y="0" width="158" height="158" filterUnits="userSpaceOnUse" color-interpolation-filters="sRGB">
<feFlood flood-opacity="0" result="BackgroundImageFix"/>
<feColorMatrix in="SourceAlpha" type="matrix" values="0 0 0 0 0 0 0 0 0 0 0 0 0 0 0 0 0 0 127 0" result="hardAlpha"/>
<feOffset dy="4"/>
<feGaussianBlur stdDeviation="2"/>
<feComposite in2="hardAlpha" operator="out"/>
<feColorMatrix type="matrix" values="0 0 0 0 0 0 0 0 0 0 0 0 0 0 0 0 0 0 0.15 0"/>
<feBlend mode="normal" in2="BackgroundImageFix" result="effect1_dropShadow_45_178"/>
<feBlend mode="normal" in="SourceGraphic" in2="effect1_dropShadow_45_178" result="shape"/>
</filter>
</defs>
</svg>
