<svg width="100" height="100" viewBox="0 0 100 100" fill="none" xmlns="http://www.w3.org/2000/svg">
<path d="M98.2963 37.0591C95.1567 25.3421 87.8646 15.1659 77.7785 8.42664C67.6924 1.68735 55.5003 -1.15545 43.4737 0.427876C31.4471 2.01121 20.4062 7.91269 12.408 17.0328C4.40988 26.1529 3.95259e-06 37.8697 0 50.0001L30 50.0001C30 45.1479 31.7639 40.4612 34.9632 36.8132C38.1625 33.1651 42.5788 30.8045 47.3895 30.1712C52.2001 29.5379 57.077 30.675 61.1114 33.3707C65.1458 36.0664 68.0627 40.1369 69.3185 44.8237L98.2963 37.0591Z" fill="#AA66AA"/>
<path d="M50 100C58.7768 100 67.399 97.6897 75 93.3013L60 67.3205C56.9596 69.0759 53.5107 70 50 70L50 100Z" fill="#AA66AA"/>
</svg>
