<svg width="32" height="32" viewBox="0 0 32 32" fill="none" xmlns="http://www.w3.org/2000/svg">
<g style="mix-blend-mode:plus-darker">
<path d="M32 16C32 24.8366 24.8366 32 16 32C7.16344 32 0 24.8366 0 16C0 7.16344 7.16344 0 16 0C24.8366 0 32 7.16344 32 16Z" fill="#787880" fill-opacity="0.16"/>
<path d="M10.0174 21.9996C9.92081 21.9031 9.85642 21.7884 9.82422 21.6555C9.79202 21.5268 9.79202 21.396 9.82422 21.2631C9.85642 21.1344 9.9188 21.0257 10.0114 20.9371L14.9315 16.017L10.0114 11.0969C9.9188 11.0084 9.85642 10.8997 9.82422 10.771C9.79202 10.6422 9.79202 10.5114 9.82422 10.3786C9.85642 10.2457 9.92081 10.131 10.0174 10.0344C10.114 9.93786 10.2267 9.87346 10.3555 9.84126C10.4883 9.80907 10.6191 9.80907 10.7479 9.84126C10.8767 9.87346 10.9893 9.93584 11.0859 10.0284L16 14.9485L20.9141 10.0344C21.0107 9.93786 21.1233 9.87346 21.2521 9.84126C21.3809 9.80907 21.5097 9.80907 21.6385 9.84126C21.7673 9.87346 21.88 9.93786 21.9766 10.0344C22.0772 10.131 22.1436 10.2457 22.1758 10.3786C22.208 10.5073 22.208 10.6361 22.1758 10.7649C22.1436 10.8937 22.0792 11.0064 21.9826 11.103L17.0685 16.017L21.9826 20.9311C22.0792 21.0277 22.1416 21.1384 22.1697 21.2631C22.2019 21.3919 22.2019 21.5207 22.1697 21.6495C22.1416 21.7823 22.0772 21.899 21.9766 21.9996C21.88 22.0962 21.7673 22.1606 21.6385 22.1928C21.5097 22.225 21.3809 22.225 21.2521 22.1928C21.1233 22.1606 21.0107 22.0962 20.9141 21.9996L16 17.0856L11.0859 22.0057C10.9893 22.0982 10.8767 22.1606 10.7479 22.1928C10.6191 22.225 10.4903 22.225 10.3615 22.1928C10.2327 22.1606 10.118 22.0962 10.0174 21.9996Z" fill="#999999" style="mix-blend-mode:plus-darker"/>
</g>
</svg>
